<svg width="100" height="100" viewBox="0 0 100 100" fill="none" xmlns="http://www.w3.org/2000/svg">
<g clip-path="url(#clip0_6318_32799)">
<path d="M83.117 100.001H16.8836C14.0043 100.018 11.169 99.2936 8.65015 97.8985C6.13131 96.5033 4.01355 94.4839 2.5003 92.0342C1.00576 89.6432 0.151052 86.9082 0.018253 84.0917C-0.114546 81.2752 0.479026 78.4718 1.74197 75.9509L34.917 17.5508C36.3446 14.7666 38.515 12.4318 41.1879 10.8051C43.8607 9.17845 46.9317 8.32337 50.0606 8.33458C53.1895 8.3458 56.2543 9.22288 58.9154 10.8687C61.5765 12.5145 63.7302 14.8647 65.1378 17.6592L98.1461 75.7467C99.4546 78.2863 100.082 81.1216 99.9685 83.9761C99.8546 86.8307 99.0028 89.607 97.4961 92.0342C95.9833 94.4833 93.8662 96.5023 91.3481 97.8974C88.8301 99.2925 85.9956 100.017 83.117 100.001ZM50.0003 16.6675C48.4062 16.6411 46.8376 17.0696 45.4783 17.9027C44.1189 18.7359 43.0252 19.9392 42.3253 21.3717L42.217 21.5758L9.1003 79.8634C8.51053 81.0936 8.24533 82.4542 8.32993 83.8158C8.41453 85.1775 8.84612 86.4948 9.58364 87.6425C10.3535 88.8828 11.4292 89.9044 12.7075 90.6092C13.9859 91.3141 15.4239 91.6785 16.8836 91.6675H83.1336C84.5934 91.6785 86.0314 91.3141 87.3098 90.6092C88.5881 89.9044 89.6638 88.8828 90.4336 87.6425C91.1838 86.4589 91.6129 85.1003 91.6787 83.7005C91.7444 82.3007 91.4446 80.9079 90.8086 79.6592L57.7836 21.5758C57.0947 20.0966 55.9943 18.8471 54.614 17.9767C53.2337 17.1063 51.632 16.6518 50.0003 16.6675Z" fill="#D20000"/>
<path d="M49.9987 29.1667C48.8936 29.1667 47.8338 29.6057 47.0524 30.3871C46.271 31.1685 45.832 32.2283 45.832 33.3334V66.6668C45.832 67.7718 46.271 68.8316 47.0524 69.613C47.8338 70.3944 48.8936 70.8334 49.9987 70.8334C51.1038 70.8334 52.1636 70.3944 52.945 69.613C53.7264 68.8316 54.1654 67.7718 54.1654 66.6668V33.3334C54.1654 32.2283 53.7264 31.1685 52.945 30.3871C52.1636 29.6057 51.1038 29.1667 49.9987 29.1667Z" fill="#D20000"/>
<path d="M54.1693 81.2504C54.1693 78.9492 52.3038 77.0837 50.0026 77.0837C47.7014 77.0837 45.8359 78.9492 45.8359 81.2504C45.8359 83.5516 47.7014 85.4171 50.0026 85.4171C52.3038 85.4171 54.1693 83.5516 54.1693 81.2504Z" fill="#D20000"/>
</g>
<defs>
<clipPath id="clip0_6318_32799">
<rect width="100" height="100" fill="white"/>
</clipPath>
</defs>
</svg>
