<svg width="100" height="100" viewBox="0 0 100 100" fill="none" xmlns="http://www.w3.org/2000/svg">
<g clip-path="url(#clip0_12329_72096)">
<path d="M50 0C40.111 0 30.444 2.93245 22.2215 8.42652C13.9991 13.9206 7.59043 21.7295 3.80605 30.8658C0.0216643 40.0021 -0.968503 50.0555 0.960758 59.7545C2.89002 69.4536 7.65206 78.3627 14.6447 85.3553C21.6373 92.348 30.5465 97.11 40.2455 99.0393C49.9446 100.969 59.9979 99.9784 69.1342 96.194C78.2705 92.4096 86.0794 86.001 91.5735 77.7785C97.0676 69.5561 100 59.8891 100 50C99.9857 36.7436 94.7132 24.0342 85.3395 14.6605C75.9658 5.28678 63.2564 0.0143378 50 0V0ZM50 91.6667C41.7591 91.6667 33.7033 89.223 26.8513 84.6446C19.9992 80.0662 14.6587 73.5587 11.505 65.9452C8.35139 58.3316 7.52625 49.9538 9.13397 41.8712C10.7417 33.7887 14.7101 26.3644 20.5372 20.5372C26.3644 14.71 33.7887 10.7417 41.8713 9.13395C49.9538 7.52623 58.3316 8.35137 65.9452 11.505C73.5588 14.6587 80.0662 19.9992 84.6446 26.8512C89.223 33.7033 91.6667 41.7591 91.6667 50C91.6546 61.047 87.2608 71.638 79.4494 79.4494C71.638 87.2608 61.047 91.6545 50 91.6667Z" fill="#00CC99"/>
<path d="M71.4988 34.2313L42.7092 63.0188C42.5156 63.2131 42.2856 63.3673 42.0323 63.4725C41.779 63.5777 41.5074 63.6319 41.2332 63.6319C40.9589 63.6319 40.6873 63.5777 40.434 63.4725C40.1807 63.3673 39.9507 63.2131 39.7571 63.0188L28.6238 51.875C28.4302 51.6807 28.2002 51.5265 27.9469 51.4213C27.6936 51.3161 27.422 51.2619 27.1477 51.2619C26.8735 51.2619 26.6019 51.3161 26.3486 51.4213C26.0953 51.5265 25.8653 51.6807 25.6717 51.875C25.4774 52.0686 25.3232 52.2986 25.218 52.5519C25.1128 52.8052 25.0586 53.0768 25.0586 53.3511C25.0586 53.6253 25.1128 53.8969 25.218 54.1502C25.3232 54.4035 25.4774 54.6335 25.6717 54.8271L36.8092 65.9625C37.9841 67.1352 39.5763 67.7939 41.2363 67.7939C42.8963 67.7939 44.4885 67.1352 45.6634 65.9625L74.4509 37.1813C74.6449 36.9877 74.7988 36.7578 74.9038 36.5047C75.0089 36.2516 75.0629 35.9803 75.0629 35.7063C75.0629 35.4322 75.0089 35.1609 74.9038 34.9078C74.7988 34.6547 74.6449 34.4248 74.4509 34.2313C74.2573 34.0369 74.0273 33.8827 73.774 33.7775C73.5207 33.6723 73.2491 33.6182 72.9748 33.6182C72.7005 33.6182 72.429 33.6723 72.1757 33.7775C71.9224 33.8827 71.6923 34.0369 71.4988 34.2313Z" fill="#00CC99" stroke="#00CC99"/>
</g>
<defs>
<clipPath id="clip0_12329_72096">
<rect width="100" height="100" fill="white"/>
</clipPath>
</defs>
</svg>
